

Release info:

General
Format                                   : Matroska
Format version                           : Version 4 / Version 2
File size                                : 689 MiB
Duration                                 : 2h 14mn
Overall bit rate                         : 716 Kbps
Movie name                               : Akaashvani 2013 DVDScr Hindi

Video
ID                                       : 1
Format                                   : MPEG-4 Visual
Format profile                           : Advanced Simple@L5
Format settings, BVOP                    : Yes
Format settings, QPel                    : No
Format settings, GMC                     : No warppoints
Format settings, Matrix                  : Custom
Codec ID                                 : V_MS/VFW/FOURCC / XVID
Codec ID/Hint                            : XviD
Duration                                 : 2h 14mn
Bit rate                                 : 622 Kbps
Width                                    : 608 pixels
Height                                   : 256 pixels
Display aspect ratio                     : 2.40:1
Frame rate mode                          : Constant
Frame rate                               : 23.976 fps
Color space                              : YUV
Chroma subsampling                       : 4:2:0
Bit depth                                : 8 bits
Scan type                                : Progressive
Compression mode                         : Lossy
Bits/(Pixel*Frame)                       : 0.167
Stream size                              : 599 MiB (87%)
Title                                    : Akaashvani 2013 DVDScr Hindi
Language                                 : Hindi
Default                                  : Yes
Forced                                   : No

Audio
ID                                       : 2
Format                                   : MPEG Audio
Format version                           : Version 1
Format profile                           : Layer 3
Mode                                     : Joint stereo
Mode extension                           : Intensity Stereo
Codec ID                                 : A_MPEG/L3
Codec ID/Hint                            : MP3
Duration                                 : 2h 14mn
Bit rate mode                            : Constant
Bit rate                                 : 80.0 Kbps
Channel(s)                               : 2 channels
Sampling rate                            : 32.0 KHz
Compression mode                         : Lossy
Stream size                              : 77.0 MiB (11%)
Title                                    : Akaashvani 2013 DVDScr Hindi
Language                                 : Hindi
Default                                  : Yes
Forced                                   : No




Source:
credit to original movie ripper DDR (Thanks)

IMDB Info:

The film starts with Akaash & Vani, both setting out on their journey towards a common destination ΓÇô St. Stephen's College, Delhi University. It so happens that the moment they meet
Star Cast
Kartik Tiwari.... Akaash
Nushrat Bharucha.... Vani
Sunny Singh Nijjar.... Ravi
Sana Shaikh.... Sumbul
Gautam Mehra.... Shekhar
Kiran Kumar.... Vani's Father
Shubhangi Latkar.... Vani's Mother
Mahesh Thakur.... Vani's Uncle
Prachi Shah.... Vani's Aunty

Genre
Comedy,Romance
 
http://www.imdb.com/title/tt2423132/

Screen Shot:
 
http://www.shotpix.com/images/98624247204669375449.png 
http://www.shotpix.com/images/47598369237916377219.png 
http://www.shotpix.com/images/61626428951125686412.png 
http://www.shotpix.com/images/97052966659216081598.png